<?xml version="1.0" encoding="UTF-8"?>
<svg xmlns="http://www.w3.org/2000/svg" xmlns:xlink="http://www.w3.org/1999/xlink" width="25px" height="25px" viewBox="0 0 25 25" version="1.1">
<g id="surface1">
<path style=" stroke:none;fill-rule:nonzero;fill:rgb(0%,0%,0%);fill-opacity:1;" d="M 10.488281 1.167969 C 5.015625 2.15625 1 6.949219 1 12.511719 C 1 18.238281 5.203125 23.085938 10.886719 23.921875 C 12.101562 24.089844 14.136719 23.988281 15.292969 23.6875 C 20.441406 22.351562 24.019531 17.769531 24.019531 12.5 C 24.019531 7.574219 20.796875 3.113281 16.125 1.566406 C 14.445312 1.023438 12.1875 0.855469 10.488281 1.167969 Z M 15.234375 1.667969 C 18.960938 2.625 22.007812 5.503906 23.164062 9.175781 C 24.898438 14.703125 22.0625 20.695312 16.679688 22.875 C 14.269531 23.84375 11.375 23.933594 8.964844 23.109375 C 2.636719 20.941406 -0.421875 13.8125 2.402344 7.796875 C 3.925781 4.558594 6.75 2.324219 10.320312 1.546875 C 11.621094 1.269531 13.867188 1.324219 15.234375 1.667969 Z M 15.234375 1.667969 "/>
</g>
</svg>
