<?xml version="1.0" encoding="UTF-8"?>
<svg xmlns="http://www.w3.org/2000/svg" xmlns:xlink="http://www.w3.org/1999/xlink" width="25px" height="25px" viewBox="0 0 25 24" version="1.1">
<g id="surface1">
<path style=" stroke:none;fill-rule:evenodd;fill:rgb(99.215686%,99.607843%,99.215686%);fill-opacity:1;" d="M -0.078125 -0.0742188 C 8.253906 -0.0742188 16.589844 -0.0742188 24.921875 -0.0742188 C 24.921875 7.925781 24.921875 15.925781 24.921875 23.925781 C 16.589844 23.925781 8.253906 23.925781 -0.078125 23.925781 C -0.078125 15.925781 -0.078125 7.925781 -0.078125 -0.0742188 Z M -0.078125 -0.0742188 "/>
<path style=" stroke:none;fill-rule:evenodd;fill:rgb(26.27451%,62.745098%,27.843137%);fill-opacity:1;" d="M 10.945312 0.671875 C 16.894531 0.449219 21.0625 2.933594 23.445312 8.125 C 25.113281 13.789062 23.433594 18.289062 18.402344 21.613281 C 12.761719 24.328125 7.765625 23.507812 3.417969 19.15625 C -0.195312 14.332031 -0.195312 9.511719 3.417969 4.695312 C 5.453125 2.511719 7.964844 1.171875 10.945312 0.671875 Z M 10.945312 0.671875 "/>
<path style=" stroke:none;fill-rule:evenodd;fill:rgb(98.823529%,99.215686%,98.823529%);fill-opacity:1;" d="M 17.78125 5.144531 C 18.84375 5.988281 19.75 6.933594 20.496094 7.976562 C 18.421875 10.066406 16.351562 12.152344 14.285156 14.234375 C 12.777344 15.734375 11.226562 17.175781 9.628906 18.558594 C 7.785156 16.839844 6 15.078125 4.269531 13.265625 C 5.066406 12.328125 5.945312 11.460938 6.910156 10.660156 C 7.8125 11.453125 8.695312 12.269531 9.550781 13.117188 C 9.652344 13.21875 9.757812 13.21875 9.859375 13.117188 C 12.53125 10.480469 15.171875 7.820312 17.78125 5.144531 Z M 17.78125 5.144531 "/>
</g>
</svg>
